<?xml version="1.0" encoding="UTF-8" standalone="no"?>
<!-- Created with Inkscape (http://www.inkscape.org/) -->

<svg
   xmlns:dc="http://purl.org/dc/elements/1.1/"
   xmlns:cc="http://creativecommons.org/ns#"
   xmlns:rdf="http://www.w3.org/1999/02/22-rdf-syntax-ns#"
   xmlns:svg="http://www.w3.org/2000/svg"
   xmlns="http://www.w3.org/2000/svg"
   xmlns:sodipodi="http://sodipodi.sourceforge.net/DTD/sodipodi-0.dtd"
   xmlns:inkscape="http://www.inkscape.org/namespaces/inkscape"
   id="svg2"
   version="1.1"
   inkscape:version="0.47 r22583"
   width="599.61493"
   height="600"
   xml:space="preserve"
   sodipodi:docname="EC Bahia.pdf"><metadata
     id="metadata8"><rdf:RDF><cc:Work
         rdf:about=""><dc:format>image/svg+xml</dc:format><dc:type
           rdf:resource="http://purl.org/dc/dcmitype/StillImage" /><dc:title></dc:title></cc:Work></rdf:RDF></metadata><defs
     id="defs6"><inkscape:perspective
       sodipodi:type="inkscape:persp3d"
       inkscape:vp_x="0 : 0.5 : 1"
       inkscape:vp_y="0 : 1000 : 0"
       inkscape:vp_z="1 : 0.5 : 1"
       inkscape:persp3d-origin="0.5 : 0.33333333 : 1"
       id="perspective10" /></defs><sodipodi:namedview
     pagecolor="#ffffff"
     bordercolor="#666666"
     borderopacity="1"
     objecttolerance="10"
     gridtolerance="10"
     guidetolerance="10"
     inkscape:pageopacity="0"
     inkscape:pageshadow="2"
     inkscape:window-width="1024"
     inkscape:window-height="712"
     id="namedview4"
     showgrid="false"
     inkscape:zoom="0.44364957"
     inkscape:cx="109.59999"
     inkscape:cy="282.0286"
     inkscape:window-x="-4"
     inkscape:window-y="-4"
     inkscape:window-maximized="1"
     inkscape:current-layer="g12" /><g
     id="g12"
     inkscape:groupmode="layer"
     inkscape:label="EC Bahia"
     transform="matrix(1.25,0,0,-1.25,-262.27501,1016.3385)"><g
       id="g14"
       transform="matrix(0.32774125,0,0,0.32774125,-363.23557,-576.60453)"><path
         d="m 1748.5,2775.59 0,0 z m 733.15,1.61 c 402.31,0 730.48,328.77 730.48,731.68 0,402.51 -328.17,731.28 -730.48,731.28 -403.11,0 -731.88,-328.77 -731.88,-731.28 0,-402.91 328.77,-731.68 731.88,-731.68"
         style="fill:#1c5fb0;fill-opacity:1;fill-rule:evenodd;stroke:none"
         id="path18" /><path
         d="m 1803.04,3507.89 c 0,-374.49 304.92,-679.41 679.6,-679.41 374.49,0 679.4,304.92 679.4,679.41 0,374.88 -304.91,679.99 -679.4,679.99 -374.68,0 -679.6,-305.11 -679.6,-679.99 z m 42.34,0 c 0,351.62 285.83,637.65 637.26,637.65 351.23,0 637.06,-286.03 637.06,-637.65 0,-351.23 -285.83,-637.07 -637.06,-637.07 -351.43,0 -637.26,285.84 -637.26,637.07"
         style="fill:#ffffff;fill-opacity:1;fill-rule:evenodd;stroke:none"
         id="path20" /><path
         d="m 2483.24,3128.23 c -208.91,0 -378.86,169.95 -378.86,378.66 0,208.11 169.95,378.26 378.86,378.26 207.52,0 378.06,-170.15 378.06,-378.26 0,-208.71 -170.54,-378.66 -378.06,-378.66"
         style="fill:#ffffff;fill-opacity:1;fill-rule:evenodd;stroke:none"
         id="path22" /><path
         d="m 2030.64,3506.3 c 0,-248.67 202.35,-451.21 451.01,-451.21 248.06,0 450.21,202.54 450.21,451.21 0,248.66 -202.15,450.81 -450.21,450.81 -248.66,0 -451.01,-202.15 -451.01,-450.81 z m 41.94,0 c 0,225.6 183.47,409.07 409.07,409.07 225.01,0 408.28,-183.47 408.28,-409.07 0,-225.61 -183.27,-409.28 -408.28,-409.28 -225.6,0 -409.07,183.67 -409.07,409.28"
         style="fill:#ffffff;fill-opacity:1;fill-rule:evenodd;stroke:none"
         id="path24" /><path
         d="m 2212.32,3801.47 c 143.7,67.58 212.88,-1.59 317.63,-12.92 96.6,-35.78 188.24,5.56 276.09,18.49 -69.37,-280.67 29.82,-407.49 46.91,-611.22 -194.2,9.34 -350.63,136.55 -581.2,24.44 26.43,194.2 4.17,390.39 -59.43,581.21"
         style="fill:#ee2722;fill-opacity:1;fill-rule:evenodd;stroke:none"
         id="path26" /><path
         d="m 2518.02,3792.52 0,-136.95 266.75,0 22.66,152.06 c -112.1,-26.43 -201.95,-43.53 -289.41,-15.11"
         style="fill:#ffffff;fill-opacity:1;fill-rule:evenodd;stroke:none"
         id="path28" /><path
         d="m 3089.69,3421.02 4.17,25.84 -75.53,11.93 -50.09,7.75 -3.18,0.4 -3.97,-25.84 7.15,-0.99 49.1,-7.76 -7.75,-50.89 -41.35,6.76 -14.91,2.59 -4.17,-26.44 19.08,-3.18 50.09,-7.75 59.44,-9.14 4.17,25.84 -50.69,8.15 7.75,50.48 50.69,-7.75"
         style="fill:#ffffff;fill-opacity:1;fill-rule:evenodd;stroke:none"
         id="path30" /><path
         d="m 2968.24,3330.18 -31.6,11.53 -8.75,-24.84 40.35,-13.92 50.09,-17.69 32.6,-10.73 8.75,24.65 -41.35,14.11 -50.09,16.89"
         style="fill:#ffffff;fill-opacity:1;fill-rule:evenodd;stroke:none"
         id="path32" /><path
         d="m 2968.24,3606.48 -8.35,2.58 1.2,-27.23 7.15,-2.59 22.26,-7.35 1.99,-52.08 -24.25,-10.33 -4.57,-2.19 0.99,-28.43 3.58,1.6 50.09,22.26 74.54,32.6 -1.19,27.82 -73.35,25.84 -50.09,17.5 z m 93.62,-57.85 -43.53,-17.49 -4.17,-2.19 -1.39,35.78 5.56,-2.18 43.53,-13.92"
         style="fill:#ffffff;fill-opacity:1;fill-rule:evenodd;stroke:none"
         id="path34" /><path
         d="m 2925.9,3303.95 -14.51,-23.86 19.68,-24.25 -26.83,-44.52 -31.01,5.17 -15.11,-24.25 110.12,-18.09 28.42,-4.17 14.52,23.84 -42.94,54.87 -42.34,55.26 z m 52.08,-106.54 -9.74,2.18 -40.75,7.75 18.09,30.41 22.66,-27.82 9.74,-12.52"
         style="fill:#ffffff;fill-opacity:1;fill-rule:evenodd;stroke:none"
         id="path36" /><path
         d="m 2895.29,3800.88 -48.5,53.66 26.44,23.85 43.33,-48.5 16.5,14.31 -43.93,48.7 21.67,19.68 47.11,-52.28 10.33,9.35 5.76,5.17 -5.76,6.75 -58.83,65 -78.72,-70.76 -18.08,-16.1 18.08,-20.08 48.1,-53.66 16.5,14.91"
         style="fill:#ffffff;fill-opacity:1;fill-rule:evenodd;stroke:none"
         id="path38" /><path
         d="m 2914.97,3718.78 16.1,-41.35 c 6.16,-15.5 10.34,-25.43 12.32,-29.61 3.18,-6.16 7.36,-10.73 11.93,-13.91 3.58,-2.59 8.35,-4.58 12.92,-5.17 0.99,-0.4 2.58,-0.4 3.58,-0.4 6.16,-0.6 11.93,0 17.69,1.99 7.15,3.18 12.32,7.15 15.9,13.51 3.58,5.57 5.17,12.93 4.77,21.07 2.59,-2.58 5.17,-4.57 8.15,-6.16 2.58,-0.99 4.77,-1.98 7.36,-1.98 5.56,-1.59 11.33,-1.2 16.89,0.99 5.17,1.99 9.94,5.17 12.92,9.34 3.18,3.98 5.77,8.74 6.76,13.32 0.99,4.77 0.99,9.34 0,14.51 -0.99,5.17 -2.98,12.32 -7.16,21.66 l -18.68,48.7 -18.09,-6.75 -50.09,-19.09 -53.27,-20.67 z m 103.36,11.73 7.36,2.58 5.56,-13.91 c 4.18,-11.93 6.76,-18.48 7.75,-21.07 1,-4.77 0.6,-8.35 -0.99,-10.93 -1.59,-3.18 -4.17,-5.17 -7.75,-6.76 -4.18,-1.59 -7.76,-1.59 -10.94,0 -0.39,0 -0.39,0 -0.99,0 -2.58,1.59 -5.17,4.77 -7.15,8.35 -1,1.98 -3.58,7.75 -7.36,17.49 l -6.16,16.1 20.67,8.15 z m -40.75,-15.9 7.76,-19.68 c 4.17,-11.33 6.16,-18.68 6.16,-22.66 0.59,-3.78 -0.6,-6.76 -2.59,-9.94 -1.59,-2.58 -4.57,-4.57 -8.35,-6.16 -3.97,-1.59 -7.75,-1.59 -11.33,-0.6 -0.39,0 -0.39,0.6 -0.99,0.6 -3.18,1.59 -5.17,3.58 -7.15,6.76 -1.59,1.98 -3.78,7.75 -7.36,16.5 l -8.75,22.66 23.26,8.94 9.34,3.58"
         style="fill:#ffffff;fill-opacity:1;fill-rule:evenodd;stroke:none"
         id="path40" /><path
         d="m 2818.96,3909.4 c 3.58,6.76 5.17,13.52 4.58,20.08 -1,7.35 -4.18,13.52 -9.74,19.68 6.16,-0.4 11.72,0.59 16.89,2.58 l 0.6,0.6 c 5.16,2.58 9.74,6.75 12.92,11.92 2.58,4.58 4.17,9.74 4.17,14.91 0,5.17 -0.59,9.74 -2.58,14.51 -2.19,4.18 -5.17,8.15 -9.35,11.33 -1.58,1.59 -3.57,3.18 -5.76,4.57 -3.58,2.59 -7.75,5.17 -13.31,8.95 l -21.67,12.92 -22.86,13.32 -58.84,-98.2 -8.35,-13.32 8.35,-4.77 30.02,-18.09 c 14.31,-8.14 23.65,-13.31 27.23,-15.5 6.76,-2.58 12.92,-4.17 18.69,-3.58 1.98,0 3.57,0.6 5.76,1 3.58,0.99 7.15,2.58 10.73,4.77 5.17,2.98 9.35,7.75 12.52,12.32 z m -22.85,15.51 c 0,-0.6 0,-0.6 -0.4,-1 -2.19,-3.58 -5.17,-5.76 -8.35,-6.75 -3.58,-1 -7.16,-1 -10.93,0.59 -2.59,0.4 -7.75,3.58 -15.91,8.15 l -20.67,12.92 18.09,29.42 18.09,-10.74 c 10.33,-6.16 16.5,-10.33 19.08,-13.51 0,-0.4 0.6,-0.4 0.6,-0.99 1.99,-2.59 2.98,-5.77 2.98,-8.36 0.6,-3.57 -0.4,-6.55 -2.58,-9.73 z m 4.17,43.93 c -0.99,0.59 -2.58,0.99 -4.57,1.98 -2.59,2.19 -6.76,4.18 -11.93,7.36 l -15.1,8.75 15.5,25.84 11.53,-6.77 1.39,-0.99 c 10.93,-6.16 17.1,-10.33 19.28,-11.92 3.58,-2.59 5.57,-5.57 6.16,-8.75 0.4,-3.58 0,-6.76 -2.18,-10.34 -2.59,-3.57 -5.17,-5.76 -8.75,-6.75 -3.58,-1 -7.16,-0.4 -11.33,1.59"
         style="fill:#ffffff;fill-opacity:1;fill-rule:evenodd;stroke:none"
         id="path42" /><path
         d="m 2721.77,4069.02 -7.76,2.58 -17.09,5.76 -23.85,-67.78 c -2.98,-9.74 -6.17,-16.89 -8.15,-20.67 -2.19,-3.98 -5.77,-6.56 -9.94,-8.15 -4.57,-2.19 -10.34,-1.59 -17.49,0.99 -7.16,1.99 -11.93,5.77 -14.91,10.34 -3.18,4.18 -4.17,9.34 -3.18,14.51 0,3.58 1.99,10.34 5.76,21.07 l 23.26,66.79 -24.85,8.15 -22.26,-65.6 c -4.57,-13.91 -7.15,-24.24 -8.35,-32 -0.4,-5.17 0,-10.33 2.18,-16.1 2,-5.57 5.57,-10.73 10.34,-15.5 5.17,-4.57 13.32,-9.15 25.25,-13.32 9.94,-3.18 18.09,-4.77 25.44,-4.18 6.56,0 12.32,1.99 17.49,4.58 5.17,3.18 9.34,7.35 12.92,12.92 3.58,5.76 7.75,16.1 12.92,31 l 14.51,41.95 7.76,22.66"
         style="fill:#ffffff;fill-opacity:1;fill-rule:evenodd;stroke:none"
         id="path44" /><path
         d="m 2201.58,3921.33 -18.09,30.41 55.66,33.59 -11.33,18.69 -55.86,-33.59 -14.9,24.84 60.42,36.18 -11.33,18.48 -70.36,-41.74 -12.33,-7.75 12.33,-20.67 54.26,-91.04 84.88,51.09 -10.93,18.68 -62.42,-37.17"
         style="fill:#ffffff;fill-opacity:1;fill-rule:evenodd;stroke:none"
         id="path46" /><path
         d="m 2409.3,4007.6 c -4.17,-5.17 -9.94,-8.35 -16.5,-9.35 -9.34,-1.59 -17.69,0.6 -24.85,6.76 -6.75,5.77 -11.33,17.1 -13.91,33 -2.59,15.5 -1.59,27.03 3.57,34.78 4.58,7.75 11.93,12.33 21.68,13.92 6.75,0.99 12.91,0 18.08,-3.18 5.76,-2.99 9.74,-7.76 12.33,-13.92 l 24.44,10.34 c -4.17,9.74 -9.94,16.5 -16.69,21.27 -11.33,7.75 -24.65,10.33 -40.75,8.15 -18.09,-2.99 -31.61,-11.33 -40.75,-24.85 -8.95,-13.32 -11.93,-31.01 -8.35,-52.68 3.18,-20.07 10.94,-35.18 23.85,-44.91 12.93,-9.75 27.84,-13.52 44.93,-10.94 13.91,2.19 24.84,7.35 32.6,15.51 7.75,8.34 12.32,19.67 14.31,34.18 l -26.84,4.18 c -0.4,-9.94 -2.98,-17.09 -7.15,-22.26"
         style="fill:#ffffff;fill-opacity:1;fill-rule:evenodd;stroke:none"
         id="path48" /><path
         d="m 2502.72,4113.54 -25.84,0.6 -4.57,-128.81 91.23,-2.98 1,21.67 -65.4,1.98 3.58,107.54"
         style="fill:#ffffff;fill-opacity:1;fill-rule:evenodd;stroke:none"
         id="path50" /><path
         d="m 2065.62,3922.32 24.85,29.42 -17.09,14.51 -19.09,-22.66 -47.11,-56.45 16.5,-14.51 24.85,29.62 5.76,-4.77 77.52,-64.6 3.98,5.16 12.52,15.11 -12.52,10.33 -70.17,58.84"
         style="fill:#ffffff;fill-opacity:1;fill-rule:evenodd;stroke:none"
         id="path52" /><path
         d="m 2054.29,3798.89 c -3.18,-0.6 -6.36,-1.2 -8.35,-1.59 -5.17,-1.59 -10.93,-3.58 -16.49,-7.36 4.17,10.94 4.57,20.27 1.98,28.42 -2.58,8.35 -8.15,14.52 -17.09,19.29 -6.56,3.97 -13.32,5.56 -20.68,5.16 -2.58,0 -5.16,-0.59 -7.75,-1.59 -3.57,-0.99 -7.15,-3.18 -10.33,-5.76 -5.17,-4.17 -11.33,-12.32 -18.09,-24.85 l -26.24,-48.5 54.66,-30.41 59.04,-32.6 9.34,17.1 2.98,6.16 -2.98,1.59 -43.93,24.65 2.59,4.77 c 2.58,5.17 5.16,8.74 7.15,10.73 2.59,2.19 5.17,3.18 8.75,4.17 3.58,1 11.33,2.19 23.26,3.19 l 2.18,0 32,2.58 15.51,27.43 -30.01,-1.59 c -7.16,0 -12.93,-0.6 -17.5,-0.99 z m -42.93,-1.59 c -0.6,-3.58 -4.18,-10.94 -9.94,-21.67 l -9.74,-17.09 -5.77,2.98 -23.25,12.92 10.33,18.08 c 5.17,9.35 8.35,15.11 9.35,16.7 1.59,1.39 2.58,2.59 3.57,3.58 2.19,0.99 3.78,1.99 5.77,2.58 3.58,0.4 7.15,0 11.33,-2.18 3.18,-1.99 5.76,-3.98 7.35,-7.16 1,-2.58 1.39,-5.76 1,-8.74"
         style="fill:#ffffff;fill-opacity:1;fill-rule:evenodd;stroke:none"
         id="path54" /><path
         d="m 2050.12,3300.37 -19.08,-11.53 23.25,-38.76 14.32,-23.26 -14.32,-8.74 -16.1,-9.74 -33.59,56.25 -18.69,-11.33 -0.39,0 0.39,-0.99 33.2,-55.26 -24.25,-14.51 -8.95,13.91 -27.23,45.92 -19.28,-11.33 46.51,-77.52 3.18,-5.17 65.2,39.35 46.51,27.83 -46.51,77.52 -4.17,7.36"
         style="fill:#ffffff;fill-opacity:1;fill-rule:evenodd;stroke:none"
         id="path56" /><path
         d="m 1985.91,3435.53 21.27,1.6 -1.59,26.23 -19.68,-1.59 -29.41,-1.99 -1,17.1 c -0.99,11.92 -1.98,21.07 -3.57,27.43 -1.59,3.97 -4.18,8.74 -7.36,12.92 -3.58,3.97 -8.15,7.75 -13.32,10.33 -4.77,1.99 -9.94,2.98 -16.1,2.98 -1.59,0 -2.98,0 -4.57,-0.39 -10.33,-0.6 -18.69,-3.78 -24.85,-9.35 -6.16,-5.16 -9.73,-11.92 -11.32,-19.08 -1,-5.17 -1,-15.5 0.39,-31.6 l 2.59,-41.94 37.76,2.58 70.76,4.77 z m -88.25,20.08 -0.6,12.92 c -0.99,9.34 -0.99,15.5 -0.39,18.68 0.39,4.58 1.99,8.15 4.57,11.33 3.18,2.59 6.76,4.57 11.33,4.57 0.99,0 2.18,0 2.58,0 3.18,0 5.77,-0.99 7.75,-1.98 3.19,-1.99 5.77,-4.58 7.36,-7.75 1.39,-3.58 2.58,-10.34 3.58,-20.68 l 0.39,-14.51 -19.08,-0.99 -17.49,-1.59"
         style="fill:#ffffff;fill-opacity:1;fill-rule:evenodd;stroke:none"
         id="path58" /><path
         d="m 1950.34,3292.62 c 9.73,2.98 17.09,9.74 21.26,19.47 2.99,6.76 3.98,17.7 2.99,32.21 -0.4,11.33 -1,18.48 -1,21.66 0,4.57 1,8.15 2.58,10.74 1.6,2.18 3.58,4.17 6.76,4.76 1,0.4 1.99,1 2.98,1 3.78,0 7.36,-1 10.94,-3.18 4.57,-2.98 8.35,-8.15 10.93,-16.5 2.58,-7.75 2.58,-14.51 0,-20.07 -2.19,-5.77 -7.35,-10.34 -15.11,-14.51 l 10.34,-23.86 c 13.51,6.37 22.26,14.51 26.83,25.45 4.18,10.73 4.18,24.25 -0.99,39.75 -3.58,10.93 -7.75,19.08 -13.32,25.25 -5.17,6.35 -11.92,10.33 -19.28,12.52 -3.58,0.39 -6.56,0.99 -10.34,0.99 -3.57,0 -7.75,-0.6 -11.32,-1.59 -7.76,-2.58 -13.92,-6.76 -18.09,-11.33 -4.57,-5.17 -7.16,-10.93 -8.15,-18.09 -1.2,-6.76 -1.2,-16.5 0,-29.41 0.99,-13.52 0.39,-21.67 -1.2,-25.84 -0.99,-3.19 -2.98,-5.17 -6.16,-6.17 -2.98,-1.19 -6.16,-0.59 -8.74,1.39 -4.57,3.19 -7.75,8.35 -10.34,15.51 -1.99,7.35 -2.58,12.92 -0.99,17.09 1.59,4.77 5.56,8.35 11.92,11.33 l -9.34,24.85 c -3.18,-1 -5.76,-2.59 -8.35,-3.58 -6.76,-4.17 -11.92,-10.33 -14.9,-17.49 -4.78,-10.34 -4.18,-22.86 0.99,-38.76 3.18,-9.34 7.15,-17.1 12.32,-22.86 0.6,-0.4 1.19,-1.59 1.59,-1.99 4.77,-4.77 9.94,-7.75 16.1,-9.34 6.16,-1.59 12.92,-1.59 19.09,0.6"
         style="fill:#ffffff;fill-opacity:1;fill-rule:evenodd;stroke:none"
         id="path60" /><path
         d="m 1895.08,3604.49 c 3.58,-6.76 8.15,-11.93 13.31,-16.5 2.19,-2.19 4.77,-3.58 6.76,-5.17 6.76,-4.17 14.51,-7.36 23.85,-9.94 18.09,-5.17 33.6,-5.17 46.91,0.6 1.59,0.99 3.18,1.59 4.77,2.58 14.52,7.76 24.25,20.67 30.02,39.36 5.17,18.49 3.58,34.58 -4.77,49.1 -6.16,10.73 -15.9,19.08 -30.02,25.24 -3.57,1.59 -8.14,3.18 -12.92,4.57 -20.07,5.77 -37.56,4.77 -52.07,-2.98 -2.19,-0.99 -3.58,-2.19 -5.77,-3.18 -11.33,-8.15 -19.68,-20.08 -24.25,-36.17 -2.58,-10.34 -3.58,-19.68 -2.58,-28.43 0.59,-6.16 3.18,-12.92 6.76,-19.08 z m 17.49,41.94 c 0.99,2.58 1.59,4.57 2.58,6.56 3.58,6.76 8.75,11.92 15.11,15.1 9.14,4.58 20.67,4.58 34.98,0.4 8.35,-2.58 15.51,-5.56 20.67,-9.74 4.18,-2.58 6.76,-5.76 9.35,-9.34 5.17,-8.75 6.16,-18.09 3.57,-27.83 -1.98,-7.75 -6.56,-13.91 -12.92,-18.68 -1.39,-1 -2.98,-1.99 -5.16,-2.99 -9.15,-4.77 -21.07,-4.77 -34.99,-0.59 -14.51,4.17 -24.45,10.34 -29.62,18.68 -0.39,0.4 -0.39,1 -0.99,1.39 -4.57,7.75 -5.17,17.1 -2.58,27.04"
         style="fill:#ffffff;fill-opacity:1;fill-rule:evenodd;stroke:none"
         id="path62" /><path
         d="m 2621.39,3048.52 -19.48,-5.16 c 0,-8.75 -3.78,-16.5 -9.35,-24.25 -5.17,-7.16 -10.33,-12.32 -15.5,-15.9 -0.6,-0.6 -0.99,-1.2 -1.59,-1.2 l 1.59,-6.16 4.17,-15.9 c 10.74,7.16 19.48,15.9 25.84,26.84 l 24.25,-91.04 23.66,6.16 -33.59,126.61"
         style="fill:#ffffff;fill-opacity:1;fill-rule:evenodd;stroke:none"
         id="path64" /><path
         d="m 2570.9,2960.27 c -4.77,5.17 -10.94,8.15 -18.69,9.74 12.33,7.36 18.09,16.5 17.5,28.03 -0.41,8.15 -3.98,15.5 -10.34,21.07 -7.75,7.75 -18.09,10.93 -29.82,10.33 -7.35,-0.39 -13.51,-1.98 -19.28,-5.17 -5.36,-2.98 -10.14,-6.75 -12.72,-11.92 -2.98,-4.57 -5.17,-10.73 -6.16,-19.08 l 22.66,-2.59 c 0.4,5.77 1.99,10.34 5.17,13.52 2.58,2.98 6.16,4.57 10.33,4.57 4.58,0.6 8.15,-0.39 10.74,-2.98 2.58,-2.58 4.17,-6.36 4.77,-10.34 0,-5.16 -1.6,-9.34 -5.17,-12.91 -3.18,-3.19 -8.35,-4.78 -15.1,-5.17 l -1.6,-20.28 c 4.18,1.59 8.35,2.19 11.53,2.59 4.57,0 8.74,-1.59 12.32,-5.17 3.59,-3.58 5.77,-8.15 5.77,-14.51 0.4,-6.57 -1.19,-11.73 -4.18,-15.91 -3.57,-4.17 -7.75,-6.16 -12.92,-6.75 -4.76,0 -8.74,0.99 -12.52,4.17 -3.58,2.98 -5.56,7.76 -6.56,13.92 l -24.25,-4.18 c 2.19,-10.73 6.76,-19.68 15.11,-25.84 7.95,-6.16 17.89,-9.34 29.81,-8.75 12.33,1 22.07,5.17 30.41,13.92 4.18,4.77 7.17,9.94 9.35,15.5 0.99,4.77 1.59,9.35 1.59,13.92 0,3.77 -0.6,6.75 -1.59,9.34 -1.59,4.17 -3.58,7.75 -6.16,10.93"
         style="fill:#ffffff;fill-opacity:1;fill-rule:evenodd;stroke:none"
         id="path66" /><path
         d="m 2440.7,3030.04 c -0.99,0 -1.39,0 -2.58,0 -10.73,0 -20.08,-3.58 -27.83,-10.93 -8.35,-7.16 -12.92,-18.09 -13.51,-31.01 -0.4,-12.92 2.58,-23.26 9.34,-31.4 7.35,-8.36 16.09,-12.53 25.84,-12.93 2.58,-0.59 4.77,0 6.16,0 6.76,1 12.92,3.98 18.09,9.15 -1.99,-14.31 -4.57,-24.25 -8.75,-28.83 -2.58,-3.18 -5.57,-5.16 -9.34,-6.16 -0.99,0 -2.58,0 -3.98,0 -3.77,0 -7.35,1.39 -9.34,3.98 -2.59,2.18 -3.58,6.36 -4.17,10.93 l -24.25,-1.59 c 0.99,-10.73 4.57,-19.08 10.73,-24.84 5.77,-5.57 14.11,-8.75 24.45,-9.15 1.99,0 4.57,0 6.56,0 11.53,0.99 20.67,5.56 28.42,13.92 9.35,10.33 14.51,26.83 16.1,50.68 1,23.26 -1.98,40.15 -10.33,51.09 -7.76,10.93 -18.09,16.49 -31.61,17.09 z m 8.95,-63.61 c -3.18,-3.18 -6.76,-4.57 -11.53,-4.57 0,0 -0.4,0 -0.99,0 -4.58,0 -8.75,1.99 -11.93,6.16 -2.99,4.18 -4.57,10.34 -3.98,18.49 0.4,8.35 2.58,14.51 5.57,18.09 3.18,3.18 7.35,4.77 11.33,4.77 0.59,0 0.59,0 0.59,0 4.58,-0.6 8.75,-2.58 12.33,-7.36 3.18,-4.57 4.77,-10.73 4.77,-19.08 -0.6,-7.15 -2.58,-12.92 -6.16,-16.5"
         style="fill:#ffffff;fill-opacity:1;fill-rule:evenodd;stroke:none"
         id="path68" /><path
         d="m 2348.27,3024.27 c -8.74,-3.57 -17.09,-5.56 -23.85,-6.16 l -5.56,-21.66 c 12.91,0.39 24.84,3.58 36.17,9.74 l -24.85,-90.84 24.25,-6.36 34.2,126.22 -19.68,5.17 c -5.17,-6.76 -11.93,-12.53 -20.68,-16.11"
         style="fill:#ffffff;fill-opacity:1;fill-rule:evenodd;stroke:none"
         id="path70" /><path
         d="m 2786.77,3038.79 c 19.67,0 35.77,16.1 35.77,35.57 0,19.68 -16.1,35.78 -35.77,35.78 -19.09,0 -34.99,-16.1 -34.99,-35.78 0,-19.47 15.9,-35.57 34.99,-35.57"
         style="fill:#ffffff;fill-opacity:1;fill-rule:evenodd;stroke:none"
         id="path72" /><path
         d="m 2169.98,3025.87 c 19.08,0 35.18,16.1 35.18,35.58 0,19.67 -16.1,35.77 -35.18,35.77 -19.68,0 -35.59,-16.1 -35.59,-35.77 0,-19.48 15.91,-35.58 35.59,-35.58"
         style="fill:#ffffff;fill-opacity:1;fill-rule:evenodd;stroke:none"
         id="path74" /><path
         d="m 2201.98,3828.5 -59.43,-6.75 91.63,-796.08 66.59,7.75 -91.64,796.08 -7.15,-1"
         style="fill:#ffffff;fill-opacity:1;fill-rule:evenodd;stroke:none"
         id="path76" /><path
         d="m 2858.12,3196.41 c -5.57,67.19 -20.47,127.02 -34.58,184.86 -28.83,116.68 -58.64,237.33 -12.53,424.57 l 1.79,7.56 -7.55,-1.2 c -23.06,-3.38 -46.91,-8.94 -69.97,-14.11 -65.59,-15.11 -133.57,-30.61 -203.54,-4.77 l -0.6,0.2 -0.59,0 c -30.81,3.38 -59.44,12.12 -86.87,20.67 -64.6,19.68 -131.38,39.95 -233.55,-8.15 l -4.18,-1.99 1.59,-4.37 c 64.8,-194.79 84.88,-389.39 59.04,-578.82 l -1.19,-9.54 8.74,4.17 c 152.46,74.34 269.33,43.14 393.17,10.34 59.24,-15.7 120.66,-32.01 185.45,-35.19 l 5.96,-0.19 -0.59,5.96 z m -188.23,39.36 c -118.08,31.4 -239.92,63.61 -391.98,-7.16 6.36,50.89 9.94,102.17 9.94,153.65 0,3.58 0,7.36 -0.2,10.94 -0.2,36.57 -2.19,73.54 -5.76,110.51 75.53,29.02 155.24,39.56 239.91,24.85 l -1.59,256.01 c 2.78,-0.39 5.76,-0.79 8.55,-1.19 72.75,-26.43 141.92,-10.73 208.9,4.57 21.27,4.97 41.35,9.35 61.63,12.73 -16.11,-67.98 -22.66,-127.41 -22.66,-180.89 0,-39.16 3.37,-75.33 8.74,-109.72 6.76,-44.92 16.9,-86.46 27.04,-127.41 0.39,-1.2 0.79,-2.58 0.99,-3.78 13.71,-55.65 27.83,-113.3 33.79,-177.3 -61.42,3.78 -120.26,19.08 -177.3,34.19"
         style="fill:#1c5fb0;fill-opacity:1;fill-rule:evenodd;stroke:none"
         id="path78" /><path
         d="m 2150.5,3815.38 90.04,-781.76 52.28,6.16 -89.85,781.77 -52.47,-6.17"
         style="fill:#1c5fb0;fill-opacity:1;fill-rule:evenodd;stroke:none"
         id="path80" /><path
         d="m 2812.41,3382.66 c -10.14,40.95 -20.28,82.49 -27.04,127.41 -89.44,-4.57 -263.57,18.49 -263.57,18.49 -84.67,14.71 -164.38,4.17 -239.91,-24.85 3.57,-36.97 5.56,-73.94 5.76,-110.51 187.84,47.1 342.48,-19.49 524.76,-10.54"
         style="fill:#ffffff;fill-opacity:1;fill-rule:evenodd;stroke:none"
         id="path82" /><path
         d="m 2376.7,3554.79 c -54.86,0 -99.19,53.28 -99.19,118.48 0,65.59 44.33,118.86 99.19,118.86 54.26,0 99.19,-53.27 99.19,-118.86 0,-65.2 -44.93,-118.48 -99.19,-118.48"
         style="fill:#ffffff;fill-opacity:1;fill-rule:evenodd;stroke:none"
         id="path84" /><path
         d="m 2322.43,3737.27 c 28.63,13.51 42.54,-0.2 63.61,-2.59 19.28,-7.15 37.57,1.2 55.06,3.78 -13.71,-56.05 6.16,-81.5 9.54,-122.25 -38.96,1.79 -70.17,27.24 -116.28,4.77 5.17,38.97 0.8,78.12 -11.93,116.29"
         style="fill:#ee2722;fill-opacity:1;fill-rule:evenodd;stroke:none"
         id="path86" /><path
         d="m 2383.66,3735.48 0,-27.23 53.27,0 4.57,30.21 c -22.46,-5.17 -40.35,-8.55 -57.84,-2.98"
         style="fill:#ffffff;fill-opacity:1;fill-rule:evenodd;stroke:none"
         id="path88" /><path
         d="m 2320.45,3742.83 -11.93,-1.39 18.29,-159.22 13.32,1.4 -18.29,159.21 -1.39,0"
         style="fill:#ffffff;fill-opacity:1;fill-rule:evenodd;stroke:none"
         id="path90" /><path
         d="m 2451.64,3616.21 c -1.2,13.52 -4.18,25.45 -6.96,36.98 -5.77,23.45 -11.73,47.51 -2.59,85.07 l 0.4,1.39 -1.39,-0.2 c -4.77,-0.59 -9.54,-1.79 -14.11,-2.78 -13.12,-2.98 -26.64,-6.16 -40.75,-0.99 l -0.2,0 c -6.16,0.79 -11.93,2.58 -17.29,4.17 -12.92,3.97 -26.24,7.95 -46.71,-1.59 l -1,-0.4 0.4,-0.79 c 12.92,-39.16 16.9,-78.12 11.93,-115.89 l -0.4,-1.98 1.79,0.99 c 30.41,14.71 53.87,8.55 78.71,1.99 11.92,-3.18 24.05,-6.36 36.97,-6.96 l 1.2,-0.2 0,1.19 z m -37.57,7.95 c -23.66,6.17 -48.11,12.73 -78.52,-1.39 1.2,10.14 1.99,20.28 1.99,30.62 0,0.79 0,1.59 0,2.18 -0.2,7.36 -0.6,14.71 -1.19,22.27 15.1,5.76 31.01,7.95 47.9,4.96 l -0.2,51.09 c 0.6,0 1.2,-0.2 1.79,-0.2 14.51,-5.37 28.23,-2.19 41.74,0.99 4.18,1 8.15,1.79 12.33,2.39 -3.38,-13.52 -4.57,-25.44 -4.57,-35.98 0,-7.95 0.59,-15.11 1.79,-22.06 1.39,-8.95 3.37,-17.3 5.36,-25.44 0,-0.4 0.2,-0.6 0.2,-0.8 2.78,-11.13 5.56,-22.66 6.76,-35.38 -12.32,0.59 -24.06,3.77 -35.38,6.75"
         style="fill:#1c5fb0;fill-opacity:1;fill-rule:evenodd;stroke:none"
         id="path92" /><path
         d="m 2310.11,3740.05 17.89,-156.23 10.54,1.19 -18.09,156.23 -10.34,-1.19"
         style="fill:#1c5fb0;fill-opacity:1;fill-rule:evenodd;stroke:none"
         id="path94" /><path
         d="m 2442.49,3653.59 c -1.99,8.14 -3.97,16.49 -5.36,25.44 -17.9,-0.8 -52.88,3.77 -52.88,3.77 -16.89,2.99 -32.8,0.8 -47.9,-4.96 0.59,-7.56 0.99,-14.91 1.19,-22.27 37.57,9.54 68.58,-3.77 104.95,-1.98"
         style="fill:#ffffff;fill-opacity:1;fill-rule:evenodd;stroke:none"
         id="path96" /><path
         d="m 2355.23,3687.97 c -10.93,0 -19.87,10.73 -19.87,23.66 0,13.11 8.94,23.85 19.87,23.85 10.93,0 19.88,-10.74 19.88,-23.85 0,-12.93 -8.95,-23.66 -19.88,-23.66"
         style="fill:#ffffff;fill-opacity:1;fill-rule:evenodd;stroke:none"
         id="path98" /></g></g></svg>