<?xml version="1.0" encoding="UTF-8" standalone="no"?>
<!-- Generator: Adobe Illustrator 12.0.0, SVG Export Plug-In  -->

<svg
   xmlns:dc="http://purl.org/dc/elements/1.1/"
   xmlns:cc="http://creativecommons.org/ns#"
   xmlns:rdf="http://www.w3.org/1999/02/22-rdf-syntax-ns#"
   xmlns:svg="http://www.w3.org/2000/svg"
   xmlns="http://www.w3.org/2000/svg"
   xmlns:sodipodi="http://sodipodi.sourceforge.net/DTD/sodipodi-0.dtd"
   xmlns:inkscape="http://www.inkscape.org/namespaces/inkscape"
   version="1.1"
   width="193"
   height="193"
   viewBox="0 0 193 193"
   enable-background="new 0 0 193 193"
   xml:space="preserve"
   id="svg6386"
   inkscape:version="0.48.1 "
   sodipodi:docname="Fortaleza_Esporte_Clube_logo.svg"><metadata
   id="metadata6402"><rdf:RDF><cc:Work
       rdf:about=""><dc:format>image/svg+xml</dc:format><dc:type
         rdf:resource="http://purl.org/dc/dcmitype/StillImage" /></cc:Work></rdf:RDF></metadata><sodipodi:namedview
   pagecolor="#ffffff"
   bordercolor="#666666"
   borderopacity="1"
   objecttolerance="10"
   gridtolerance="10"
   guidetolerance="10"
   inkscape:pageopacity="0"
   inkscape:pageshadow="2"
   inkscape:window-width="1360"
   inkscape:window-height="706"
   id="namedview6400"
   showgrid="false"
   inkscape:zoom="8.5292466"
   inkscape:cx="101.75548"
   inkscape:cy="100.07"
   inkscape:window-x="-8"
   inkscape:window-y="-8"
   inkscape:window-maximized="1"
   inkscape:current-layer="svg6386" />
<defs
   id="defs6388">
</defs>
<polygon
   opacity="0"
   fill-rule="evenodd"
   clip-rule="evenodd"
   fill="#FFFFFF"
   points="0,0 192.7558594,0 192.7558594,192.7558594   0,192.7558594 0,0 "
   id="polygon6390" />
<polygon
   fill-rule="evenodd"
   clip-rule="evenodd"
   fill="#111083"
   points="25.1669922,62.9936523 91.2509766,160.21875   91.2509766,62.9936523 25.1669922,62.9936523 "
   id="polygon6392" />
<polygon
   fill-rule="evenodd"
   clip-rule="evenodd"
   fill="#FE1108"
   points="101.5058594,62.9936523 101.5058594,159.6464844   166.4492188,62.9936523 101.5058594,62.9936523 "
   id="polygon6394" />
<path
   fill-rule="evenodd"
   clip-rule="evenodd"
   fill="#111083"
   d="M25.222168,49.2197266V16.0854492h11.734375v5.6083984h-8.2875977  v7.8383789h7.1645508v5.6083984h-7.1645508v14.0791016H25.222168L25.222168,49.2197266z M39.1245117,32.8569336  c0-3.949707,0.3642578-7.1977539,1.1035156-9.7514648c0.7338867-2.5532227,1.6962891-4.4589844,2.8823242-5.7089844  c1.1860352-1.2495117,2.625-1.8745117,4.3168945-1.8745117c2.449707,0,4.4423828,1.4814453,5.987793,4.4511719  c1.5415039,2.9707031,2.3139648,7.1982422,2.3139648,12.6835938c0,5.5385742-0.8164063,9.8745117-2.449707,12.9912109  c-1.4335938,2.7617188-3.378418,4.1347656-5.8378906,4.1347656c-2.4790039,0-4.4331055-1.3657227-5.8671875-4.0888672  C39.9414063,42.5771484,39.1245117,38.2958984,39.1245117,32.8569336L39.1245117,32.8569336z M42.6826172,32.6333008  c0,3.8105469,0.4570313,6.6650391,1.3662109,8.5712891c0.9135742,1.9052734,2.0410156,2.8618164,3.3925781,2.8618164  c1.3564453,0,2.4790039-0.9492188,3.3735352-2.8393555c0.894043-1.8896484,1.3364258-4.7905273,1.3364258-8.7089844  c0-3.8427734-0.4321289-6.6811523-1.3027344-8.5253906c-0.8652344-1.8354492-2.0024414-2.7543945-3.4072266-2.7543945  s-2.5517578,0.9267578-3.4316406,2.7773438C43.125,25.875,42.6826172,28.7451172,42.6826172,32.6333008L42.6826172,32.6333008z   M58.4316406,49.2197266V16.0854492h7.2768555c1.8618164,0,3.1938477,0.3007813,3.9907227,0.8950195  c0.796875,0.59375,1.453125,1.6279297,1.9638672,3.09375c0.5151367,1.4731445,0.7680664,3.2319336,0.7680664,5.2768555  c0,2.5917969-0.3891602,4.6826172-1.1713867,6.2636719c-0.7875977,1.581543-1.9008789,2.5771484-3.3398438,2.9785156  c0.7392578,0.8481445,1.3510742,1.7666016,1.8325195,2.769043c0.4863281,1.0029297,1.1474609,2.800293,1.9833984,5.3925781  l2.0756836,6.4648438h-4.1123047l-2.5083008-7.2133789c-0.8994141-2.5996094-1.5117188-4.2353516-1.8374023-4.890625  c-0.3208008-0.65625-0.6660156-1.1035156-1.0253906-1.3583984c-0.3598633-0.246582-0.9384766-0.3701172-1.7353516-0.3701172  h-0.7148438v13.8325195H58.4316406L58.4316406,49.2197266z M61.8779297,30.0952148h2.5668945  c1.5649414,0,2.5615234-0.1083984,2.9897461-0.3242188c0.4272461-0.2158203,0.7719727-0.6552734,1.0395508-1.3193359  c0.262207-0.6630859,0.3984375-1.550293,0.3984375-2.6459961c0-1.0566406-0.1362305-1.9052734-0.3984375-2.5458984  c-0.2675781-0.6401367-0.6269531-1.0795898-1.0834961-1.3183594c-0.3212891-0.1704102-1.2592773-0.2475586-2.8051758-0.2475586  h-2.7075195V30.0952148L61.8779297,30.0952148z M79.5375977,49.2197266V21.6938477H74.453125v-5.6083984h13.6005859v5.6083984  h-5.0698242v27.5258789H79.5375977L79.5375977,49.2197266z M105.7275391,49.2197266h-3.7568359l-1.4970703-7.5292969h-6.8349609  l-1.4091797,7.5292969h-3.675293L95.21875,16.0854492h3.6601563L105.7275391,49.2197266L105.7275391,49.2197266z   M99.3652344,36.1123047L97.012207,23.8149414l-2.3188477,12.2973633H99.3652344L99.3652344,36.1123047z M107.6523438,49.2197266  V16.3549805h3.4462891v27.2792969h8.5996094v5.5854492H107.6523438L107.6523438,49.2197266z M122.1767578,49.2197266V16.0854492  h12.7060547v5.6083984h-9.2597656v7.3447266h8.6035156v5.5776367h-8.6035156v9.0180664h9.5712891v5.5854492H122.1767578  L122.1767578,49.2197266z M136.6328125,49.2197266v-6.0327148l8.9970703-21.4931641h-7.9863281v-5.6083984h12.53125v5.199707  l-9.3710938,22.3491211h9.7412109v5.5854492H136.6328125L136.6328125,49.2197266z M168.1601563,49.2197266h-3.7568359  l-1.4980469-7.5292969h-6.8339844l-1.4091797,7.5292969h-3.6748047l6.6640625-33.1342773h3.6601563L168.1601563,49.2197266  L168.1601563,49.2197266z M161.7978516,36.1123047l-2.3525391-12.2973633l-2.3193359,12.2973633H161.7978516L161.7978516,36.1123047  z"
   id="path6396" />
<path
   fill="#111083"
   d="M12.7958984,54.8286133h167.1640625V11.1069336H12.7958984V54.8286133L12.7958984,54.8286133z   M179.9599609,57.4321289H12.7958984v0.0166016l83.5820313,122.2016602l83.5820313-122.2016602V57.4321289L179.9599609,57.4321289z   M10.1923828,57.8461914V9.8056641V8.5039063h1.3017578h169.7675781h1.3017578v1.3017578v48.0405273v0.3979492l-0.2294922,0.3344727  L97.4511719,182.6835938l-1.0732422,1.5683594l-1.0727539-1.5683594L10.4213867,58.5786133l-0.2290039-0.3344727V57.8461914  L10.1923828,57.8461914z"
   id="path6398" />
<path
   style="fill:#ffffff;fill-opacity:1;stroke:none"
   d="M 85.659964,163.28348 C 79.832923,154.7776 61.291702,127.67263 44.457257,103.05021 L 13.849173,58.282168 55.369519,58.111358 c 22.83619,-0.09395 59.976701,-0.09395 82.534451,0 l 41.01411,0.17081 -40.9462,59.847712 c -22.5204,32.91625 -41.11968,60.02122 -41.331734,60.23327 -0.212055,0.21206 -5.15314,-6.5738 -10.980182,-15.07967 l 0,0 z m 5.821185,-51.61128 0,-49.079036 -33.23247,0 c -29.709715,0 -33.190753,0.108712 -32.838929,1.025551 0.405319,1.056245 65.586266,97.132525 65.897534,97.132525 0.09562,0 0.173865,-22.08557 0.173865,-49.07904 z m 47.987131,-7.81412 c 14.4713,-21.565778 26.48883,-39.672747 26.70563,-40.23771 0.3526,-0.91886 -3.0411,-1.027206 -32.17507,-1.027206 l -32.56924,0 0,48.863106 0,48.86311 5.86362,-8.6254 c 3.22499,-4.74396 17.70377,-26.27012 32.17506,-47.8359 l 0,0 z"
   id="path6932"
   inkscape:connector-curvature="0" /><path
   style="fill:#ffffff;fill-opacity:1;stroke:none"
   d="m 13.219981,33.079419 0,-21.554983 83.235395,0 83.235394,0 0,21.554983 0,21.554982 -83.235394,0 -83.235395,0 0,-21.554982 z m 37.66543,15.873698 c 3.737626,-2.617934 5.701665,-11.272154 4.731352,-20.847925 -0.59525,-5.874374 -1.20088,-7.642139 -3.591529,-10.483263 -1.487895,-1.768263 -2.246396,-2.118112 -4.592242,-2.118112 -3.098776,0 -4.621449,1.200021 -6.732439,5.305842 -1.772213,3.446906 -2.16182,16.348596 -0.650673,21.546758 1.928177,6.632698 6.666044,9.517123 10.835531,6.5967 z m -21.747904,-6.588475 0,-6.963918 3.647766,0 3.647766,0 0,-2.984536 0,-2.984536 -3.647766,0 -3.647766,0 0,-3.647766 0,-3.647766 3.979381,0 3.979382,0 0,-3.316152 0,-3.316151 -5.969072,0 -5.969073,0 0,16.912371 0,16.912372 1.989691,0 1.989691,0 0,-6.963918 z m 33.161512,0.331615 c 0,-5.521445 0.170576,-6.632302 1.018414,-6.632302 1.083681,0 2.734688,3.362252 4.677588,9.525841 1.155473,3.665582 1.227052,3.738764 3.656881,3.738764 l 2.478338,0 -0.685797,-2.487114 c -0.80855,-2.932287 -2.886711,-8.454941 -4.033991,-10.720212 -0.645976,-1.275462 -0.639422,-1.658314 0.03225,-1.883804 0.463646,-0.155654 1.244505,-1.07679 1.735244,-2.04697 2.238539,-4.425544 1.982994,-11.571328 -0.51778,-14.478652 -1.232263,-1.432591 -2.134766,-1.698014 -6.879428,-2.023221 l -5.461097,-0.374312 0,17.007142 0,17.007143 1.989691,0 1.989691,0 0,-6.632303 z m 21.223368,-6.963917 0,-13.59622 2.321305,0 2.321306,0 0,-3.316152 0,-3.316151 -6.963917,0 -6.963918,0 0,3.316151 0,3.316152 2.652921,0 2.652921,0 0,13.59622 0,13.59622 1.989691,0 1.989691,0 0,-13.59622 z m 9.689369,10.114261 0.590699,-3.481959 2.918804,-0.208832 c 3.330231,-0.238268 3.738671,0.164495 4.358521,4.29794 0.41554,2.771033 0.51622,2.87481 2.78912,2.87481 2.11938,0 2.31834,-0.151027 1.96594,-1.492269 -0.21565,-0.820747 -1.80567,-8.431314 -3.53337,-16.912371 l -3.141295,-15.420103 -2.084751,0 -2.084752,0 -3.119523,15.751718 c -1.715744,8.663445 -3.271629,16.274012 -3.457532,16.912372 -0.275301,0.945339 0.08361,1.160653 1.934715,1.160653 2.224534,0 2.285246,-0.07383 2.863424,-3.481959 l 0,0 z m 26.788294,0.497422 0,-2.984536 -4.311,0 -4.31099,0 0,-13.59622 0,-13.59622 -1.98969,0 -1.98969,0 0,16.580757 0,16.580756 6.30068,0 6.30069,0 0,-2.984537 z m 15.2543,0 0,-2.984536 -4.64262,0 -4.64261,0 0,-4.310996 0,-4.310997 4.311,0 4.311,0 0,-2.984536 0,-2.984536 -4.311,0 -4.311,0 0,-3.316151 0,-3.316151 4.64261,0 4.64262,0 0,-3.316152 0,-3.316151 -6.63231,0 -6.6323,0 0,16.912371 0,16.912372 6.6323,0 6.63231,0 0,-2.984537 z m 20.24673,0.109727 c 0.61985,-4.133445 1.02829,-4.536208 4.35852,-4.29794 l 2.9188,0.208832 0.5907,3.481959 c 0.57977,3.417502 0.63328,3.481959 2.89063,3.481959 2.04641,0 2.26144,-0.164489 1.95076,-1.492269 -0.19204,-0.820747 -1.76907,-8.431314 -3.50452,-16.912371 l -3.15535,-15.420103 -2.05769,0 -2.05769,0 -2.95349,14.547785 c -1.62441,8.001282 -3.11699,14.283213 -3.31684,13.959847 -0.19985,-0.323366 -2.47168,-0.676957 -5.04851,-0.785758 l -4.68515,-0.197819 4.50867,-10.611684 c 3.38409,-7.964856 4.51615,-11.39746 4.5387,-13.762027 l 0.03,-3.150344 -6.6323,0 -6.6323,0 0,3.316151 0,3.316152 3.91577,0 3.91577,0 -4.24739,10.099706 c -3.40676,8.10081 -4.24738,10.791722 -4.24738,13.59622 l 0,3.496514 9.24458,0 9.24458,0 0.43111,-2.87481 z"
   id="path6934"
   inkscape:connector-curvature="0" /><path
   style="fill:#ffffff;fill-opacity:1;stroke:none"
   d="m 96.020463,30.92392 c 1.117576,-5.578369 1.249048,-5.452489 2.413187,2.310548 0.416964,2.780514 0.390841,2.829487 -1.509319,2.829487 l -1.933627,0 1.029759,-5.140035 z"
   id="path6936"
   inkscape:connector-curvature="0" /><path
   style="fill:#ffffff;fill-opacity:1;stroke:none"
   d="m 157.80417,35.362674 c 0,-0.385705 0.3562,-2.847947 0.79155,-5.471649 l 0.79155,-4.770369 0.82563,4.310996 c 1.20299,6.281329 1.16326,6.632303 -0.75065,6.632303 -0.91194,0 -1.65808,-0.315577 -1.65808,-0.701281 z"
   id="path6938"
   inkscape:connector-curvature="0" /><path
   style="fill:#ffffff;fill-opacity:1;stroke:none"
   d="m 62.299019,26.145554 0,-4.009434 2.581963,0 c 2.853063,0 3.387109,0.682096 3.387109,4.326098 0,2.540166 -0.100559,2.633853 -3.481959,3.243994 l -2.487113,0.448776 0,-4.009434 z"
   id="path6940"
   inkscape:connector-curvature="0" /><path
   style="fill:#ffffff;fill-opacity:1;stroke:none"
   d="m 45.776528,42.754523 c -3.633105,-3.633105 -3.620693,-17.062835 0.01881,-20.356543 2.875812,-2.602574 5.36882,1.19224 5.766992,8.778417 0.462091,8.803981 -2.544127,14.819803 -5.785805,11.578126 z"
   id="path6942"
   inkscape:connector-curvature="0" /><path
   style="fill:#ffffff;fill-opacity:1;stroke:none"
   d="m 13.212858,33.228729 0,-21.554983 83.235395,0 83.235397,0 0,21.554983 0,21.554983 -83.235397,0 -83.235395,0 0,-21.554983 z m 38.460274,15.031795 c 2.705713,-2.705712 3.986461,-7.748126 3.986461,-15.695026 0,-11.231979 -2.820535,-17.045017 -8.270386,-17.045017 -2.821278,0 -4.535971,1.335464 -6.557061,5.106873 -1.259409,2.350093 -1.421693,3.712819 -1.421693,11.938144 0,8.4048 0.14771,9.585186 1.557799,12.448721 2.588433,5.256452 7.273857,6.677329 10.70488,3.246305 z m -22.542748,-5.746572 0,-6.963917 3.684105,0 3.684106,0 -0.202147,-3.150344 -0.202147,-3.150344 -3.481958,-0.200468 -3.481959,-0.200467 0,-3.281491 0,-3.281491 3.979381,0 3.979382,0 0,-3.316151 0,-3.316152 -5.969072,0 -5.969073,0 0,16.912371 0,16.912372 1.989691,0 1.989691,0 0,-6.963918 z m 33.304881,-0.03038 c 0.176316,-6.551026 0.262464,-6.939828 1.359333,-6.13488 0.644097,0.472678 2.163832,3.545497 3.377188,6.828486 2.189962,5.925403 2.223852,5.970579 4.632178,6.174916 1.334342,0.113214 2.426076,0.09088 2.426076,-0.04964 0,-0.669583 -3.325487,-9.923864 -4.316741,-12.012775 -1.030565,-2.171756 -1.035166,-2.451559 -0.05641,-3.430317 2.052352,-2.052353 2.647464,-3.98482 2.662783,-8.646684 0.02497,-7.599634 -2.012812,-9.559554 -9.93934,-9.559554 l -4.267821,0 0,16.912371 0,16.912372 1.967253,0 1.967253,0 0.188245,-6.994294 0,0 z m 21.079999,-6.601926 0,-13.59622 2.321305,0 2.321306,0 0,-3.316151 0,-3.316152 -6.963917,0 -6.963918,0 0,3.316152 0,3.316151 2.652921,0 2.652921,0 0,13.59622 0,13.59622 1.989691,0 1.989691,0 0,-13.59622 z m 9.647957,9.948453 c 0.696385,-3.315986 0.696564,-3.316162 3.583068,-3.524983 3.295261,-0.238392 3.707511,0.17115 4.326361,4.29794 0.41554,2.771033 0.51623,2.87481 2.78912,2.87481 1.91597,0 2.30273,-0.217588 2.06302,-1.160653 -0.16225,-0.638359 -1.75108,-8.248926 -3.53074,-16.912371 l -3.235725,-15.751719 -2.087391,0 -2.087385,0 -3.119523,15.751719 c -1.715744,8.663445 -3.278268,16.294916 -3.472276,16.958825 -0.298845,1.022644 -0.01446,1.174671 1.861157,0.994845 2.075731,-0.199014 2.257364,-0.419224 2.910314,-3.528413 l 0,0 z m 26.829709,0.663231 0,-2.984537 -4.311,0 -4.311,0 0,-13.596219 0,-13.59622 -1.98969,0 -1.98969,0 0,16.580756 0,16.580756 6.30069,0 6.30069,0 0,-2.984536 z m 15.25429,0 0,-2.984537 -4.64261,0 -4.64261,0 0,-4.310996 0,-4.310997 4.311,0 4.31099,0 0,-2.984536 0,-2.984536 -4.31099,0 -4.311,0 0,-3.316151 0,-3.316151 4.64261,0 4.64261,0 0,-3.316151 0,-3.316152 -6.6323,0 -6.6323,0 0,16.912371 0,16.912372 6.6323,0 6.6323,0 0,-2.984536 z m 20.24674,0.109726 c 0.61885,-4.12679 1.0311,-4.536332 4.32636,-4.29794 2.8865,0.208821 2.88668,0.208997 3.58307,3.524983 0.64812,3.086194 0.84581,3.330563 2.85088,3.52398 1.18495,0.114306 2.15159,-0.03492 2.14807,-0.331615 -0.003,-0.296694 -1.49578,-7.670861 -3.31615,-16.387039 -1.82037,-8.716177 -3.30976,-16.102903 -3.30976,-16.414948 0,-0.312044 -1.00556,-0.567354 -2.23459,-0.567354 l -2.23459,0 -2.88146,14.566543 c -1.5848,8.011599 -3.05019,14.29353 -3.25641,13.959847 -0.20623,-0.333683 -2.48497,-0.695715 -5.06387,-0.804516 l -4.68891,-0.197819 4.30959,-10.280068 c 2.7688,-6.604695 4.4222,-11.524954 4.62458,-13.762028 l 0.315,-3.481959 -6.71443,0 -6.71443,0 0,3.316152 0,3.316151 3.64777,0 c 2.00627,0 3.64777,0.255201 3.64777,0.567113 0,0.311912 -1.69301,4.564876 -3.76224,9.451031 -2.82658,6.674521 -3.83544,9.91481 -4.05664,13.029107 l -0.29441,4.145189 9.32184,0 9.32185,0 0.43111,-2.87481 z"
   id="path6944"
   inkscape:connector-curvature="0" /></svg>